<svg id="Layer_5" enable-background="new 0 0 64 64" height="512" viewBox="0 0 64 64" width="512" xmlns="http://www.w3.org/2000/svg"><path d="m48.121 38.723c3.791-4.082 5.879-9.399 5.879-14.97v-.753c0-12.127-9.869-21.993-22-21.994-12.131 0-22 9.867-22 21.994v.753c0 5.571 2.088 10.887 5.879 14.97l5.251 5.654c.188.203.348.432.511.658-1.484.181-2.641 1.434-2.641 2.965 0 .771.301 1.468.78 2-.48.532-.78 1.229-.78 2 0 1.451 1.035 2.663 2.406 2.94 1.306 4.712 5.641 8.06 10.594 8.06s9.288-3.348 10.594-8.06c1.371-.277 2.406-1.489 2.406-2.94 0-.771-.301-1.468-.78-2 .48-.532.78-1.229.78-2 0-1.531-1.157-2.784-2.641-2.964.163-.226.322-.455.511-.658zm-36.121-15.723c0-11.024 8.972-19.993 20-19.994 11.028 0 20 8.97 20 19.994v.753c0 4.053-1.233 7.947-3.485 11.247h-1.515v-14h-8v-10h-14v10h-8v14h-1.516c-2.251-3.3-3.484-7.194-3.484-11.247zm21 12h-2v-6h2zm-4-8v8h-2v-22h10v22h-2v-8zm-4 8h-6v-12h6zm14-12h6v12h-6zm-21.656 14.363c-.108-.117-.201-.244-.307-.363h29.925c-.105.119-.198.246-.306.362l-5.251 5.655c-.543.584-.978 1.262-1.352 1.982h-16.107c-.374-.721-.809-1.398-1.352-1.983zm14.656 23.637c-3.841 0-7.225-2.462-8.478-6h16.955c-1.252 3.538-4.636 6-8.477 6zm10-8h-20c-.552 0-1-.449-1-1s.448-1 1-1h20c.552 0 1 .449 1 1s-.448 1-1 1zm1-5c0 .551-.448 1-1 1h-20c-.552 0-1-.449-1-1s.448-1 1-1h20c.552 0 1 .449 1 1z"/><path d="m29 15h2v2h-2z"/><path d="m33 15h2v2h-2z"/><path d="m29 19h2v2h-2z"/><path d="m33 19h2v2h-2z"/><path d="m29 23h2v2h-2z"/><path d="m33 23h2v2h-2z"/><path d="m32.839 7.021.102-1.997c-.62-.032-1.252-.032-1.874 0l.104 1.997c.55-.029 1.113-.028 1.668 0z"/><path d="m36.637 5.592c-.602-.156-1.219-.284-1.833-.378l-.305 1.976c.549.084 1.098.198 1.634.337z"/><path d="m29.51 7.189-.305-1.977c-.611.094-1.229.221-1.832.377l.5 1.937c.54-.139 1.09-.253 1.637-.337z"/><path d="m54 1h2v2h-2z"/><path d="m54 5h2v2h-2z"/><path d="m56 3h2v2h-2z"/><path d="m52 3h2v2h-2z"/><path d="m52 39h2v2h-2z"/><path d="m52 43h2v2h-2z"/><path d="m54 41h2v2h-2z"/><path d="m50 41h2v2h-2z"/><path d="m59 25h2v2h-2z"/><path d="m59 29h2v2h-2z"/><path d="m61 27h2v2h-2z"/><path d="m57 27h2v2h-2z"/><path d="m7 6h2v2h-2z"/><path d="m7 10h2v2h-2z"/><path d="m9 8h2v2h-2z"/><path d="m5 8h2v2h-2z"/><path d="m3 19h2v2h-2z"/><path d="m3 23h2v2h-2z"/><path d="m5 21h2v2h-2z"/><path d="m1 21h2v2h-2z"/><path d="m8 35h2v2h-2z"/><path d="m8 39h2v2h-2z"/><path d="m10 37h2v2h-2z"/><path d="m6 37h2v2h-2z"/></svg>