<svg height="448pt" viewBox="0 0 448.048 448" width="448pt" xmlns="http://www.w3.org/2000/svg"><path d="m416.046875 171.847656v-24.800781c-20.398437 9.855469-55.871094 12.976563-80.046875 12.976563-5.488281 0-10.800781-.183594-16-.457032v12.273438c31.8125-5.09375 64.234375-5.09375 96.046875 0zm0 0"/><path d="m368 424.023438c-24.167969 0-59.625-3.121094-80-12.976563v20.976563c2.183594 5.359374 31.65625 16 80 16s77.816406-10.640626 80.046875-16.335938v-20.65625c-20.390625 9.871094-55.871094 12.992188-80.046875 12.992188zm0 0"/><path d="m368 280.023438c-24.167969 0-59.625-3.121094-80-12.976563v28.976563c2.183594 5.359374 31.65625 16 80 16s77.816406-10.640626 80.046875-16.335938v-28.648438c-20.398437 9.863282-55.871094 12.984376-80.046875 12.984376zm0 0"/><path d="m448 363.039062c-20.351562 9.863282-55.824219 12.984376-80 12.984376s-59.625-3.121094-80-12.976563v28.976563c2.183594 5.359374 31.65625 16 80 16 48.175781 0 77.601562-10.558594 80-16.269532v-7.730468h.039062zm0 0"/><path d="m368 328.023438c-24.167969 0-59.625-3.121094-80-12.976563v28.976563c2.183594 5.359374 31.65625 16 80 16s77.816406-10.640626 80.046875-16.335938v-28.648438c-20.398437 9.863282-55.871094 12.984376-80.046875 12.984376zm0 0"/><path d="m415.910156 79.894531c-2.542968-5.40625-31.910156-15.871093-79.910156-15.871093-5.511719 0-10.816406.199218-16 .480468v31.039063c5.183594.28125 10.488281.480469 16 .480469 47.847656 0 77.121094-10.398438 79.910156-16.128907zm0 0"/><path d="m416.046875 127.695312v-28.65625c-20.398437 9.863282-55.871094 12.984376-80.046875 12.984376-5.488281 0-10.800781-.183594-16-.457032v32c5.183594.28125 10.488281.480469 16 .480469 48.390625-.023437 77.832031-10.65625 80.046875-16.351563zm0 0"/><path d="m112 96.023438c5.511719 0 10.816406-.199219 16-.480469v-31.039063c-5.183594-.28125-10.488281-.480468-16-.480468-47.503906 0-76.6875 10.234374-79.832031 16 3.144531 5.769531 32.328125 16 79.832031 16zm0 0"/><path d="m112 144.023438c5.511719 0 10.816406-.199219 16-.480469v-32c-5.199219.273437-10.511719.457031-16 .457031-24.175781 0-59.65625-3.121094-80-12.992188v29.015626c2.167969 5.367187 31.609375 16 80 16zm0 0"/><path d="m224 96.023438c-24.167969 0-59.625-3.121094-80-12.976563v28.976563c2.183594 5.359374 31.65625 16 80 16s77.816406-10.640626 80.046875-16.335938v-28.648438c-20.398437 9.863282-55.871094 12.984376-80.046875 12.984376zm0 0"/><path d="m304.046875 159.6875v-28.648438c-20.398437 9.863282-55.871094 12.984376-80.046875 12.984376s-59.625-3.121094-80-12.976563v28.976563c2.183594 5.359374 31.65625 16 80 16s77.816406-10.640626 80.046875-16.335938zm0 0"/><path d="m169.304688 186.984375c4.058593 3.132813 6.511718 7.914063 6.695312 13.039063v19.839843c31.789062 5.207031 64.210938 5.207031 96 0v-19.839843c.183594-5.125 2.636719-9.90625 6.695312-13.039063-18.03125 3.40625-36.34375 5.09375-54.695312 5.039063-18.351562.054687-36.664062-1.632813-54.695312-5.039063zm0 0"/><path d="m176 316.152344v23.710937c31.789062 5.207031 64.210938 5.207031 96 0v-23.710937c-31.792969 5.164062-64.207031 5.164062-96 0zm0 0"/><path d="m176 356.152344v23.710937c31.789062 5.207031 64.210938 5.207031 96 0v-23.710937c-31.792969 5.164062-64.207031 5.164062-96 0zm0 0"/><path d="m176 236.152344v23.710937c31.789062 5.207031 64.210938 5.207031 96 0v-23.710937c-15.863281 2.621094-31.921875 3.917968-48 3.871094-16.078125.046874-32.136719-1.25-48-3.871094zm0 0"/><path d="m176 396.152344v23.710937c31.789062 5.207031 64.210938 5.207031 96 0v-23.710937c-31.792969 5.164062-64.207031 5.164062-96 0zm0 0"/><path d="m176 276.152344v23.710937c31.789062 5.207031 64.210938 5.207031 96 0v-23.710937c-31.792969 5.164062-64.207031 5.164062-96 0zm0 0"/><path d="m32 147.046875v24.800781c31.796875-5.085937 64.203125-5.085937 96 0v-12.28125c-5.199219.273438-10.511719.457032-16 .457032-24.167969 0-59.625-3.121094-80-12.976563zm0 0"/><path d="m160 363.039062c-20.351562 9.863282-55.824219 12.984376-80 12.984376s-59.625-3.121094-80-12.976563v28.976563c2.183594 5.359374 31.65625 16 80 16 48.175781 0 77.601562-10.558594 80-16.269532zm0 0"/><path d="m80 328.023438c-24.167969 0-59.625-3.121094-80-12.976563v28.976563c2.183594 5.359374 31.65625 16 80 16s77.816406-10.640626 80.046875-16.335938v-28.648438c-20.398437 9.863282-55.871094 12.984376-80.046875 12.984376zm0 0"/><path d="m80 424.023438c-24.167969 0-59.625-3.121094-80-12.976563v20.976563c2.183594 5.359374 31.65625 16 80 16s77.816406-10.640626 80.046875-16.335938v-20.65625c-20.390625 9.871094-55.871094 12.992188-80.046875 12.992188zm0 0"/><path d="m80 280.023438c-24.167969 0-59.625-3.121094-80-12.976563v28.976563c2.183594 5.359374 31.65625 16 80 16s77.816406-10.640626 80.046875-16.335938v-28.648438c-20.398437 9.863282-55.871094 12.984376-80.046875 12.984376zm0 0"/><path d="m80 232.023438c-24.175781 0-59.664062-3.121094-80-12.992188v28.992188c2.183594 5.359374 31.65625 16 80 16s77.816406-10.640626 80.046875-16.335938v-28.648438c-20.398437 9.863282-55.871094 12.984376-80.046875 12.984376zm0 0"/><path d="m80 216.023438c47.777344 0 77.070312-10.398438 79.910156-16.128907-2.574218-5.398437-31.910156-15.871093-79.910156-15.871093-47.777344 0-77.070312 10.402343-79.9101562 16.128906 2.5742182 5.398437 31.9101562 15.871094 79.9101562 15.871094zm0 0"/><path d="m288.089844 200.152344c2.574218 5.398437 31.910156 15.871094 79.910156 15.871094 47.777344 0 77.070312-10.398438 79.910156-16.128907-2.574218-5.398437-31.910156-15.871093-79.910156-15.871093-47.777344 0-77.070312 10.402343-79.910156 16.128906zm0 0"/><path d="m368 264.023438c48.34375 0 77.816406-10.640626 80.046875-16.335938v-28.648438c-20.398437 9.863282-55.871094 12.984376-80.046875 12.984376s-59.664062-3.121094-80-12.992188v28.992188c2.183594 5.359374 31.65625 16 80 16zm0 0"/><path d="m224 32.023438c47.777344 0 77.070312-10.398438 79.910156-16.128907-2.574218-5.398437-31.910156-15.8710935-79.910156-15.8710935-47.777344 0-77.070312 10.4023435-79.910156 16.1289065 2.574218 5.398437 31.910156 15.871094 79.910156 15.871094zm0 0"/><path d="m224 80.023438c48.136719 0 77.535156-10.542969 80-16.261719 0 0 .039062-6.921875.039062-7v-21.722657c-20.390624 9.863282-55.863281 12.984376-80.039062 12.984376s-59.664062-3.121094-80-12.992188v28.992188c2.183594 5.359374 31.65625 16 80 16zm0 0"/></svg>